HIERARCHY
ROOT hip
{
  OFFSET 92.8614 79.7603 -117.324
  CHANNELS 6 Xposition Yposition Zposition Zrotation Xrotation Yrotation
  JOINT abdomen
  {
    OFFSET 0 20.6881 -0.73152
    CHANNELS 3 Zrotation Xrotation Yrotation
    JOINT chest
    {
      OFFSET 0 11.7043 -0.48768
      CHANNELS 3 Zrotation Xrotation Yrotation
      JOINT neck
      {
        OFFSET 0 22.1894 -2.19456
        CHANNELS 3 Zrotation Xrotation Yrotation
        JOINT head
        {
          OFFSET -0.24384 7.07133 1.2192
          CHANNELS 3 Zrotation Xrotation Yrotation
          JOINT leftEye
          {
            OFFSET 4.14528 8.04674 8.04672
            CHANNELS 3 Zrotation Xrotation Yrotation
            End Site
            {
              OFFSET 1 0 0
            }
          }
          JOINT rightEye
          {
            OFFSET -3.6576 8.04674 8.04672
            CHANNELS 3 Zrotation Xrotation Yrotation
            End Site
            {
              OFFSET 1 0 0
            }
          }
        }
      }
      JOINT rCollar
      {
        OFFSET -2.68224 19.2634 -4.8768
        CHANNELS 3 Zrotation Xrotation Yrotation
        JOINT rShldr
        {
          OFFSET -8.77824 -1.95073 1.46304
          CHANNELS 3 Zrotation Xrotation Yrotation
          JOINT rForeArm
          {
            OFFSET -28.1742 -1.7115 0.48768
            CHANNELS 3 Zrotation Xrotation Yrotation
            JOINT rHand
            {
              OFFSET -22.5879 0.773209 7.07136
              CHANNELS 3 Zrotation Xrotation Yrotation
              JOINT rThumb1
              {
                OFFSET -1.2192 -0.487915 3.41376
                CHANNELS 3 Zrotation Xrotation Yrotation
                JOINT rThumb2
                {
                  OFFSET -3.37035 -0.52449 3.41376
                  CHANNELS 3 Zrotation Xrotation Yrotation
                  End Site
                  {
                    OFFSET -1.78271 -1.18214 1.43049
                  }
                }
              }
              JOINT rIndex1
              {
                OFFSET -7.75947 0.938293 5.60832
                CHANNELS 3 Zrotation Xrotation Yrotation
                JOINT rIndex2
                {
                  OFFSET -2.54057 -0.884171 1.56538
                  CHANNELS 3 Zrotation Xrotation Yrotation
                  End Site
                  {
                    OFFSET -1.62519 -0.234802 1.16502
                  }
                }
              }
              JOINT rMid1
              {
                OFFSET -8.24714 1.18213 3.41376
                CHANNELS 3 Zrotation Xrotation Yrotation
                JOINT rMid2
                {
                  OFFSET -3.10165 -0.590103 1.0647
                  CHANNELS 3 Zrotation Xrotation Yrotation
                  End Site
                  {
                    OFFSET -2.48547 -0.328903 0.83742
                  }
                }
              }
              JOINT rRing1
              {
                OFFSET -8.82822 0.546677 1.51678
                CHANNELS 3 Zrotation Xrotation Yrotation
                JOINT rRing2
                {
                  OFFSET -2.60934 -0.819778 -0.0198488
                  CHANNELS 3 Zrotation Xrotation Yrotation
                  End Site
                  {
                    OFFSET -2.33842 -0.294052 0.168128
                  }
                }
              }
              JOINT rPinky1
              {
                OFFSET -8.27202 -0.0477905 -0.4584
                CHANNELS 3 Zrotation Xrotation Yrotation
                JOINT rPinky2
                {
                  OFFSET -1.82734 -0.647385 -0.700984
                  CHANNELS 3 Zrotation Xrotation Yrotation
                  End Site
                  {
                    OFFSET -1.69225 -0.51767 -0.607171
                  }
                }
              }
            }
          }
        }
      }
      JOINT lCollar
      {
        OFFSET 2.68224 19.2634 -4.8768
        CHANNELS 3 Zrotation Xrotation Yrotation
        JOINT lShldr
        {
          OFFSET 8.77824 -1.95073 1.46304
          CHANNELS 3 Zrotation Xrotation Yrotation
          JOINT lForeArm
          {
            OFFSET 28.1742 -1.7115 0.48768
            CHANNELS 3 Zrotation Xrotation Yrotation
            JOINT lHand
            {
              OFFSET 22.5879 0.773209 7.07136
              CHANNELS 3 Zrotation Xrotation Yrotation
              JOINT lThumb1
              {
                OFFSET 1.2192 -0.487915 3.41376
                CHANNELS 3 Zrotation Xrotation Yrotation
                JOINT lThumb2
                {
                  OFFSET 3.37035 -0.52449 3.41376
                  CHANNELS 3 Zrotation Xrotation Yrotation
                  End Site
                  {
                    OFFSET 1.78271 -1.18214 1.43049
                  }
                }
              }
              JOINT lIndex1
              {
                OFFSET 7.75947 0.938293 5.60832
                CHANNELS 3 Zrotation Xrotation Yrotation
                JOINT lIndex2
                {
                  OFFSET 2.54057 -0.884171 1.56538
                  CHANNELS 3 Zrotation Xrotation Yrotation
                  End Site
                  {
                    OFFSET 1.62519 -0.234802 1.16502
                  }
                }
              }
              JOINT lMid1
              {
                OFFSET 8.24714 1.18213 3.41376
                CHANNELS 3 Zrotation Xrotation Yrotation
                JOINT lMid2
                {
                  OFFSET 3.10165 -0.590103 1.0647
                  CHANNELS 3 Zrotation Xrotation Yrotation
                  End Site
                  {
                    OFFSET 2.48547 -0.328903 0.83742
                  }
                }
              }
              JOINT lRing1
              {
                OFFSET 8.82822 0.546677 1.51678
                CHANNELS 3 Zrotation Xrotation Yrotation
                JOINT lRing2
                {
                  OFFSET 2.60934 -0.819778 -0.0198488
                  CHANNELS 3 Zrotation Xrotation Yrotation
                  End Site
                  {
                    OFFSET 2.33842 -0.294052 0.168128
                  }
                }
              }
              JOINT lPinky1
              {
                OFFSET 8.27202 -0.0477905 -0.4584
                CHANNELS 3 Zrotation Xrotation Yrotation
                JOINT lPinky2
                {
                  OFFSET 1.82734 -0.647385 -0.700984
                  CHANNELS 3 Zrotation Xrotation Yrotation
                  End Site
                  {
                    OFFSET 1.69225 -0.51767 -0.607171
                  }
                }
              }
            }
          }
        }
      }
    }
  }
  JOINT rButtock
  {
    OFFSET -8.77824 4.35084 1.2192
    CHANNELS 3 Zrotation Xrotation Yrotation
    JOINT rThigh
    {
      OFFSET 0 -1.70687 -2.19456
      CHANNELS 3 Zrotation Xrotation Yrotation
      JOINT rShin
      {
        OFFSET 0 -36.8199 0.73152
        CHANNELS 3 Zrotation Xrotation Yrotation
        JOINT rFoot
        {
          OFFSET 0.73152 -45.1104 -5.12064
          CHANNELS 3 Zrotation Xrotation Yrotation
          End Site
          {
            OFFSET -1.1221 -3.69964 12.103
          }
        }
      }
    }
  }
  JOINT lButtock
  {
    OFFSET 8.77824 4.35084 1.2192
    CHANNELS 3 Zrotation Xrotation Yrotation
    JOINT lThigh
    {
      OFFSET 0 -1.70687 -2.19456
      CHANNELS 3 Zrotation Xrotation Yrotation
      JOINT lShin
      {
        OFFSET 0 -36.8199 0.73152
        CHANNELS 3 Zrotation Xrotation Yrotation
        JOINT lFoot
        {
          OFFSET -0.73152 -45.1104 -5.12064
          CHANNELS 3 Zrotation Xrotation Yrotation
          End Site
          {
            OFFSET 1.1221 -3.69964 12.103
          }
        }
      }
    }
  }
}
MOTION
Frames:	4
Frame Time:	0.00833333
90.4938 85.0159 92.7779 -0.0307801 0.000155241 0.000536398 0.0404823 0.000270402 0.00114434 0.0111571 0.000489936 0.00193268 4.08613e-016 -1.59028e-015 -2.32951e-018 1.21756e-015 3.18055e-015 -3.10601e-018 -0 0 0 -0 0 0 1.47762e-016 -9.70628e-019 9.93923e-017 7.53149e-015 -2.48481e-016 9.93923e-016 7.44946e-014 -2.16675e-014 2.8625e-014 8.34349e-013 1.74931e-014 -2.54444e-014 1.97087e-012 -5.31184e-015 0 3.40041e-012 -6.36111e-015 -1.19271e-014 1.97711e-012 -4.37326e-015 -1.27222e-014 7.73091 5.47488 0.417314 1.97199e-012 -4.96962e-015 -6.36111e-015 2.90554 0.965183 0.102902 1.98255e-012 -4.96962e-015 -8.74653e-015 10.2786 0.731801 0.0259123 1.96817e-012 -5.1684e-015 -3.18055e-015 2.22167 -0.733487 -0.20892 2.4982e-016 -9.70628e-019 -9.93923e-017 1.22105e-015 -4.96962e-017 -9.93923e-016 7.0668e-014 2.42517e-014 -1.27222e-014 8.36324e-013 -1.4064e-014 9.54166e-015 1.9692e-012 2.35082e-014 -1.59028e-014 3.40399e-012 4.13472e-014 -1.82882e-014 1.9632e-012 2.50469e-014 -3.18055e-015 -7.73091 5.47488 -0.417314 1.96832e-012 2.42517e-014 -9.54166e-015 -2.90554 0.965183 -0.102902 1.95637e-012 2.39536e-014 -1.11319e-014 -10.2786 0.731801 -0.0259123 1.97353e-012 2.3059e-014 -1.59028e-014 -2.22167 -0.733487 0.20892 -2.03217e-016 0 -3.88251e-019 0.554641 -3.16496 -0.0436851 -0.0057452 0.179607 -0.0505576 -0.523878 2.98421 0.121168 2.03217e-016 0 3.88251e-019 -0.493035 -3.01454 0.0399654 0.0061933 -0.092879 0.0545628 0.523458 3.10627 -0.123626 
89.8339 83.3027 86.79 -0.21681 0.60858 47.7208 -0.116287 0.804601 -1.04237 0.610795 0.440205 -0.282866 2.12526 2.21321 1.27209 -0.294059 -7.18848 2.09221 -0 0 0 -0 0 0 -9.80898e-015 -5.59775e-016 7.13559e-014 22.7528 -4.62312 -3.52229 -2.47115 -0.912036 4.05866 0.233291 10.7648 1.41871 -2.13329e-010 -2.50181e-011 4.42256e-010 -3.53506e-010 -4.57542e-011 7.69318e-010 -2.13324e-010 -2.50161e-011 4.42244e-010 7.73091 5.47488 0.417314 -2.13329e-010 -2.5017e-011 4.42252e-010 2.90554 0.965183 0.102902 -2.13319e-010 -2.50161e-011 4.4225e-010 10.2786 0.731801 0.0259123 -2.13332e-010 -2.50159e-011 4.42257e-010 2.22167 -0.733487 -0.20892 -9.71993e-015 -5.59578e-016 7.11412e-014 -22.6761 -1.26663 -2.8154 4.06291 -1.81508 -6.38008 -0.204383 -10.1517 1.34949 -2.0019e-010 -1.5824e-010 1.52107e-010 -3.51206e-010 -2.73976e-010 2.58195e-010 -2.00193e-010 -1.58236e-010 1.52118e-010 -7.73091 5.47488 -0.417314 -2.0019e-010 -1.58236e-010 1.52112e-010 -2.90554 0.965183 -0.102902 -2.00201e-010 -1.58236e-010 1.52111e-010 -10.2786 0.731801 -0.0259123 -2.00187e-010 -1.58237e-010 1.52105e-010 -2.22167 -0.733487 0.20892 -2.03217e-016 0 -3.88251e-019 1.22968 -8.82265 1.25168 -0.03173 9.25773 0.0285857 -0.725401 0.0911156 -2.68068 2.03217e-016 0 3.88251e-019 -0.12275 -4.66372 0.918744 0.0218001 15.592 -0.144982 0.552312 7.84944 -0.453697 
90.0162 83.3238 85.7008 -0.862231 -0.26186 98.1284 -0.254487 1.65276 -2.17499 1.25159 0.909313 -0.592598 4.2632 4.55744 2.61525 -0.0144494 -14.7568 4.40238 -0 0 0 -0 0 0 -2.09699e-014 -1.49121e-015 1.51138e-013 46.171 -9.55878 -7.36203 -4.9301 -1.85389 8.33092 -0.142844 22.1904 3.10496 -4.60226e-010 -5.33289e-011 9.43631e-010 -7.63046e-010 -9.75182e-011 1.64156e-009 -4.60223e-010 -5.33259e-011 9.43621e-010 7.73091 5.47488 0.417314 -4.60228e-010 -5.33273e-011 9.43629e-010 2.90554 0.965183 0.102902 -4.60219e-010 -5.33252e-011 9.43628e-010 10.2786 0.731801 0.0259123 -4.6023e-010 -5.33248e-011 9.43636e-010 2.22167 -0.733487 -0.20892 -2.08943e-014 -1.49095e-015 1.50906e-013 -46.7431 -2.41822 -5.92323 7.94434 -3.67421 -13.1822 0.137479 -21.0276 2.94887 -4.33971e-010 -3.33932e-010 3.16557e-010 -7.60953e-010 -5.78137e-010 5.37043e-010 -4.33973e-010 -3.33925e-010 3.16567e-010 -7.73091 5.47488 -0.417314 -4.3397e-010 -3.33925e-010 3.16561e-010 -2.90554 0.965183 -0.102902 -4.33982e-010 -3.33924e-010 3.16559e-010 -10.2786 0.731801 -0.0259123 -4.33971e-010 -3.33925e-010 3.16552e-010 -2.22167 -0.733487 0.20892 -2.03217e-016 0 -3.88251e-019 2.21425 -14.8184 2.67091 -0.0878359 18.8597 0.117869 -1.24514 -2.9351 -5.65591 2.03217e-016 0 3.88251e-019 0.313169 -6.30168 1.82295 0.173399 32.0815 -0.406169 0.654473 12.9523 -0.890061 
90.1327 83.337 84.7246 -0.209141 -2.17104 143.12 -0.341912 2.41006 -3.13188 1.82319 1.3195 -0.852663 6.07951 6.6265 3.83911 0.788702 -21.446 6.69254 -0 0 0 -0 0 0 -2.97225e-014 -1.67738e-015 2.13869e-013 66.5219 -13.6568 -10.8426 -7.0287 -2.68125 12.188 -1.14448 32.2078 4.94338 -6.43928e-010 -7.50435e-011 1.32677e-009 -1.06732e-009 -1.3725e-010 2.30798e-009 -6.43927e-010 -7.50396e-011 1.32676e-009 7.73091 5.47488 0.417314 -6.43932e-010 -7.50412e-011 1.32677e-009 2.90554 0.965183 0.102902 -6.43923e-010 -7.50383e-011 1.32677e-009 10.2786 0.731801 0.0259123 -6.43932e-010 -7.50375e-011 1.32678e-009 2.22167 -0.733487 -0.20892 -2.96594e-014 -1.67679e-015 2.13622e-013 -68.4008 -3.76317 -8.46252 10.997 -5.17572 -19.212 1.01394 -30.382 4.62074 -6.04507e-010 -4.74767e-010 4.56354e-010 -1.06043e-009 -8.2201e-010 7.74621e-010 -6.04507e-010 -4.74757e-010 4.56361e-010 -7.73091 5.47488 -0.417314 -6.04506e-010 -4.74757e-010 4.56356e-010 -2.90554 0.965183 -0.102902 -6.04517e-010 -4.74755e-010 4.56354e-010 -10.2786 0.731801 -0.0259123 -6.04509e-010 -4.74757e-010 4.56345e-010 -2.22167 -0.733487 0.20892 -2.03217e-016 0 -3.88251e-019 3.39076 -20.0981 4.0445 -0.16593 27.4138 0.209253 -1.97702 -5.63517 -8.32454 2.03217e-016 0 3.88251e-019 0.77091 -7.95519 2.69322 0.501785 46.9594 -0.773716 0.781339 17.3332 -1.15385 
